<?xml version="1.0" encoding="UTF-8"?>
<svg width="121.02" height="89.942" version="1.1" viewBox="0 0 32.021 23.797" xml:space="preserve" xmlns="http://www.w3.org/2000/svg"><g transform="translate(-29.16 -23.306)"><rect x="29.16" y="23.306" width="32.021" height="23.797" ry="0" fill="#9e9c9c" stroke-width=".166"/><g transform="translate(0 -.52917)" fill="#f3f901"><path d="m45.235 30.156a4.0595 4.0595 0 0 0-2.5208 0.88832l0.35657 0.35708a3.5521 3.5521 0 0 1 2.2004-0.77411 3.5521 3.5521 0 0 1 3.5522 3.5522 3.5521 3.5521 0 0 1-0.76791 2.205l0.35657 0.35657a4.0595 4.0595 0 0 0 0.88212-2.5254 4.0595 4.0595 0 0 0-4.0592-4.0597zm-0.01809 0.97875a3.099 3.099 0 0 0-1.8211 0.59118l0.37104 0.37104a2.5916 2.5916 0 0 1 1.45-0.45475 2.5916 2.5916 0 0 1 2.5916 2.5916 2.5916 2.5916 0 0 1-0.45475 1.4495l0.37052 0.37052a3.099 3.099 0 0 0 0.5917-1.82 3.099 3.099 0 0 0-3.099-3.099zm-3.4029 0.92398a4.0595 4.0595 0 0 0-0.63872 2.157 4.0595 4.0595 0 0 0 4.0597 4.0597 4.0595 4.0595 0 0 0 2.1554-0.63045l-0.37879-0.3793a3.5521 3.5521 0 0 1-1.7405 0.46612 3.5521 3.5521 0 0 1-3.5522-3.5522 3.5521 3.5521 0 0 1 0.47542-1.7394zm0.69608 0.69763a3.099 3.099 0 0 0-0.39222 1.4774 3.099 3.099 0 0 0 3.099 3.099 3.099 3.099 0 0 0 1.4779-0.38447l-0.37879-0.37982a2.5916 2.5916 0 0 1-1.0992 0.25683 2.5916 2.5916 0 0 1-2.5916-2.5916 2.5916 2.5916 0 0 1 0.2589-1.1028z" stroke-width=".18139"/><path d="m45.083 28.43c-1.1388 6.9e-4 -2.0924 0.01152-2.3353 0.08475-0.17084 0.05152-0.39884 0.18706-0.66559 0.59893l-0.46612 0.93741c0.02116 0.27986 0.23546 0.34945 0.46147 0.23203l0.35967-0.80977c0.12746-0.28696 0.32007-0.43137 0.58239-0.51108 0.17616-0.05353 1.0456-0.03357 2.0459-0.03411 1.0003-5.45e-4 2.0149 0.01341 2.1394 0.03617 0.24899 0.04552 0.66404 0.28281 0.78393 0.52813 0 0 0.39548 0.76266 0.4656 0.8816 0.0042 0.0072 0.01076 0.0155 0.01602 0.02325 0 0 0.08787 0.20996 0.154 0.30127 0.09374 0.12944 0.33745 0.34055 0.33745 0.34055 0.21338 0.14318 0.42236 0.18536 0.49971 0.20722 0.07736 0.02186 1.3059 0.02067 1.3059 0.02067 0.42163 0.0068 0.76119 0.339 0.76119 0.76068v6.0079c0 0.42168-0.33951 0.76119-0.76119 0.76119h-0.29972l0.49403 0.49403c0.6024 0 1.0873-0.48487 1.0873-1.0873v-6.3433c0-0.6024-0.48487-1.0873-1.0873-1.0873h-0.27182l-1.1327-0.05891c-0.29492-0.04097-0.53666-0.29755-0.6165-0.44855-0.07984-0.151-0.52968-1.1193-0.52968-1.1193-0.13649-0.31145-0.60949-0.61246-0.89297-0.67024-0.14174-0.0289-1.2962-0.04668-2.435-0.04599zm-5.6296 2.343c-0.6024 0-1.0873 0.48487-1.0873 1.0873v6.3433c0 0.6024 0.48487 1.0873 1.0873 1.0873h9.5793l-0.49351-0.49403h-8.8914c-0.42168 0-0.76119-0.33951-0.76119-0.76119v-6.0079c0-0.42168 0.33951-0.76068 0.76119-0.76068h1.3756l-0.49351-0.49403z" stroke-width=".166" style="paint-order:fill markers stroke"/><path d="m50.336 31.704a0.74326 0.74326 0 0 0-0.74311 0.74311 0.74326 0.74326 0 0 0 0.74311 0.74311 0.74326 0.74326 0 0 0 0.74362-0.74311 0.74326 0.74326 0 0 0-0.74362-0.74311zm0 0.46767a0.27552 0.27552 0 0 1 0.27595 0.27544 0.27552 0.27552 0 0 1-0.27595 0.27544 0.27552 0.27552 0 0 1-0.27544-0.27544 0.27552 0.27552 0 0 1 0.27544-0.27544z" stroke-width=".17506"/><rect transform="matrix(.70646 .70775 -.70007 .71407 0 0)" x="47.041" y="-7.5371" width="18.477" height=".59109" ry=".28691" stroke-width=".17725" style="paint-order:fill markers stroke"/></g><text transform="scale(.87045 1.1488)" x="44.377056" y="38.269634" fill="#f3f901" font-family="Consolas" font-size="3.0686px" font-weight="bold" letter-spacing="-.1657px" stroke-width=".19252" style="line-height:0;paint-order:fill markers stroke" xml:space="preserve"><tspan x="44.377056" y="38.269634" fill="#f3f901" font-family="Ebrima" font-size="3.0686px" font-weight="bold" letter-spacing="-.1657px" stroke-width=".19252">Нет фото</tspan></text></g></svg>
