<?xml version="1.0" encoding="UTF-8"?>
<svg width="448" height="480" version="1.1" viewBox="0 0 448 480" xmlns="http://www.w3.org/2000/svg">
 <path d="m128 0c17.7 0 32 14.3 32 32v32h128v-32c0-17.7 14.3-32 32-32s32 14.3 32 32v32h32c35.3 0 64 28.7 64 64v288c0 35.3-28.7 64-64 64h-320c-35.3 0-64-28.7-64-64v-288c0-35.3 28.7-64 64-64h32v-32c0-17.7 14.3-32 32-32zm-64 240v32c0 8.8 7.2 16 16 16h32c8.8 0 16-7.2 16-16v-32c0-8.8-7.2-16-16-16h-32c-8.8 0-16 7.2-16 16zm128 0v32c0 8.8 7.2 16 16 16h32c8.8 0 16-7.2 16-16v-32c0-8.8-7.2-16-16-16h-32c-8.8 0-16 7.2-16 16zm144-16c-8.8 0-16 7.2-16 16v32c0 8.8 7.2 16 16 16h32c8.8 0 16-7.2 16-16v-32c0-8.8-7.2-16-16-16zm-272 144v32c0 8.8 7.2 16 16 16h32c8.8 0 16-7.2 16-16v-32c0-8.8-7.2-16-16-16h-32c-8.8 0-16 7.2-16 16zm144-16c-8.8 0-16 7.2-16 16v32c0 8.8 7.2 16 16 16h32c8.8 0 16-7.2 16-16v-32c0-8.8-7.2-16-16-16zm112 16v32c0 8.8 7.2 16 16 16h32c8.8 0 16-7.2 16-16v-32c0-8.8-7.2-16-16-16h-32c-8.8 0-16 7.2-16 16z" fill="#9e9c9c"/>
</svg>
