<svg xmlns="http://www.w3.org/2000/svg" width="85.102" height="60.085" viewBox="-5 -10 85.102 60.085"><path d="M-3.02-1.89v.004h-.003v.003A1.97 1.97 0 0 0-5 .095a1.98 1.98 0 0 0 1.98 1.98h9.016V-1.89l-9.015.004zm22.524 8.113h-5.61V-6.039h5.61zM21.484-10h-9.57A1.984 1.984 0 0 0 9.93-8.02V8.205c0 1.093.89 1.984 1.984 1.984h9.57a1.984 1.984 0 0 0 1.98-1.984v-6.13h54.657A1.98 1.98 0 0 0 80.1.095a1.984 1.984 0 0 0-1.98-1.984H23.465v-6.13c0-.523-.207-1.03-.578-1.401A1.98 1.98 0 0 0 21.484-10zm43.707 32.023h12.93a1.98 1.98 0 0 0 0-3.961h-12.93zm-7.898 4.148v.004l-5.61-.004V13.913h5.61zm1.98-16.223-9.57.004a1.98 1.98 0 0 0-1.984 1.98v6.13H-3.02a1.98 1.98 0 0 0 0 3.96h50.738v6.13c0 1.097.89 1.984 1.984 1.984h9.57a1.978 1.978 0 0 0 1.98-1.98V11.929a1.98 1.98 0 0 0-1.98-1.98zM-3.02 38.01A1.98 1.98 0 0 0-5 39.99c0 1.095.887 1.981 1.98 1.985h18.333v-3.964zm31.84 8.114h-5.609V33.862h5.61zm1.981-16.227v.004h-9.57a1.98 1.98 0 0 0-1.98 1.98v16.223a1.98 1.98 0 0 0 1.98 1.98h9.57a1.98 1.98 0 0 0 1.402-.578 1.98 1.98 0 0 0 .578-1.402v-6.129l45.34-.004a1.98 1.98 0 0 0 0-3.96h-45.34v-6.13a1.98 1.98 0 0 0-1.98-1.984v.004z" style="fill:#9e9c9c;fill-opacity:1"/></svg>