<svg xmlns="http://www.w3.org/2000/svg" width="512" height="443.31" viewBox="0 0 512 443.31"><path fill="#F4F900" d="M0 385.25V75.15c0-23.2 24.1-38.6 46.3-32 87.7 26.2 149.7 5.5 212.1-15.3 64.5-21.5 129.4-43.1 223.3-13.1 18.5 5.9 30.3 23.8 30.3 43.3v310.1c0 23.2-24.1 38.6-46.2 32-87.7-26.2-149.8-5.5-212.1 15.3-64.5 21.5-129.4 43.1-223.3 13.1-18.5-5.9-30.3-23.8-30.3-43.3zm336-163.6c0-53-35.8-96-80-96s-80 43-80 96 35.8 96 80 96 80-43 80-96m-216 157.6c4.4 0 7.9-3.8 7.2-8.1-4.6-27.8-27-49.5-55.2-53-4.4-.5-8 3.1-8 7.5v39.9c0 3.6 2.4 6.8 6 7.7 17.9 4.2 34.3 6.1 50 6.1zm318.5-51.1c5 .8 9.5-3 9.5-8v-42.6c0-4.4-3.6-8.1-8-7.5-25.2 3.1-45.9 20.9-53.2 44.6-1.4 4.7 2.3 9.1 7.2 9.2 14.2.4 29 1.7 44.4 4.3zm9.5-210.5v-39.9c0-3.6-2.5-6.8-6-7.7-17.9-4.2-34.3-6.1-50-6.1-4.4 0-7.9 3.8-7.2 8.1 4.6 27.8 27 49.5 55.2 53 4.4.5 8-3.1 8-7.5zm-322.8 10.9c1.4-4.7-2.3-9.1-7.2-9.2-14.2-.4-29-1.7-44.4-4.3-5-.8-9.5 3-9.5 8l-.1 42.6c0 4.4 3.6 8.1 8 7.5 25.2-3.1 45.9-20.9 53.2-44.6"/></svg>