<?xml version="1.0" encoding="UTF-8"?>
<svg width="307.97" height="512.36" version="1.1" viewBox="0 0 307.97 512.36" xmlns="http://www.w3.org/2000/svg">
 <path d="m269.04 334.2c-27.4 17.4-65.1 24.3-90 26.9l20.9 20.6 76.3 76.3c27.9 28.6-17.5 73.3-45.7 45.7-19.1-19.4-47.1-47.4-76.3-76.6l-76.3 76.5c-28.2 27.5-73.6-17.6-45.4-45.7 19.4-19.4 47.1-47.4 76.3-76.3l20.6-20.6c-24.6-2.6-62.9-9.1-90.6-26.9-32.6-21-46.9-33.3-34.3-59 7.4-14.6 27.7-26.9 54.6-5.7 0 0 36.3 28.9 94.9 28.9 58.6 0 94.9-28.9 94.9-28.9 26.9-21.1 47.1-8.9 54.6 5.7 12.4 25.7-1.9 38-34.5 59.1zm14.6-204.7c0.1 71.6-57.9 129.8-129.5 129.9-71.6 0.1-129.8-57.9-129.9-129.5-0.1-71.6 57.9-129.8 129.5-129.9 71.6-0.1 129.8 57.9 129.9 129.5zm-193.4 0.4c0.1 35.2 28.7 63.6 63.9 63.5s63.6-28.7 63.5-63.9c-0.1-35.2-28.7-63.6-63.9-63.5s-63.6 28.7-63.5 63.9z" fill="#f4f900"/>
</svg>
