<svg xmlns="http://www.w3.org/2000/svg" width="91.379" height="64.769" viewBox="-5 -10 91.379 64.769"><path fill-rule="evenodd" d="M9.922 34.984h9.063a1.95 1.95 0 0 1 1.73 1.047c.336.645.29 1.422-.125 2.02L9.574 53.929a1.954 1.954 0 0 1-3.211 0L-4.653 38.052a1.96 1.96 0 0 1-.125-2.02 1.95 1.95 0 0 1 1.73-1.047h9.063v-43.03a1.954 1.954 0 0 1 3.907 0zm5.332 3.906H.684L7.97 49.394zM28.82 49.331a1.954 1.954 0 0 1 0-3.906h20.242a1.954 1.954 0 0 1 0 3.906zm0-16.66a1.954 1.954 0 0 1 0-3.906h33.734a1.954 1.954 0 0 1 0 3.906zm0-16.66a1.954 1.954 0 0 1 0-3.906h44.484a1.954 1.954 0 0 1 0 3.906zm0-16.66a1.954 1.954 0 0 1 0-3.906h55.605a1.954 1.954 0 0 1 0 3.906z" style="fill:#9e9c9c;fill-opacity:1"/></svg>