<?xml version="1.0" encoding="UTF-8"?>
<svg width="448.1" height="511.92" version="1.1" viewBox="0 0 448.1 511.92" xmlns="http://www.w3.org/2000/svg">
 <path d="m448 209.9c-44 0.1-87-13.6-122.8-39.2v178.7c0 33.1-10.1 65.4-29 92.6s-45.6 48-76.6 59.6-64.8 13.5-96.9 5.3c-32.1-8.2-60.9-25.9-82.7-50.8s-35.3-56-39-88.9 2.9-66.1 18.6-95.2c15.7-29.1 40-52.7 69.6-67.7 29.6-15 62.9-20.5 95.7-16v89.9c-15-4.7-31.1-4.6-46 0.4s-27.9 14.6-37 27.3c-9.1 12.7-14 28.1-13.9 43.9s5.2 31 14.5 43.7c9.3 12.7 22.4 22.1 37.4 26.9s31.1 4.8 46-0.1 28-14.4 37.2-27.1 14.2-28.1 14.2-43.8v-349.4h88c-0.1 7.4 0.6 14.9 1.9 22.2 3.1 16.3 9.4 31.9 18.7 45.7s21.3 25.6 35.2 34.6c19.9 13.1 43.2 20.1 67 20.1v87.4z" fill="#f4f900"/>
</svg>
