<?xml version="1.0" encoding="UTF-8" standalone="no"?>
<svg
   viewBox="0 0 448 448"
   version="1.1"
   id="svg1"
   sodipodi:docname="whatsapp.svg"
   width="448"
   height="448"
   inkscape:version="1.3.2 (091e20e, 2023-11-25, custom)"
   xmlns:inkscape="http://www.inkscape.org/namespaces/inkscape"
   xmlns:sodipodi="http://sodipodi.sourceforge.net/DTD/sodipodi-0.dtd"
   xmlns="http://www.w3.org/2000/svg"
   xmlns:svg="http://www.w3.org/2000/svg">
  <defs
     id="defs1" />
  <sodipodi:namedview
     id="namedview1"
     pagecolor="#ffffff"
     bordercolor="#000000"
     borderopacity="0.25"
     inkscape:showpageshadow="2"
     inkscape:pageopacity="0.0"
     inkscape:pagecheckerboard="0"
     inkscape:deskcolor="#d1d1d1"
     inkscape:zoom="1.240625"
     inkscape:cx="223.67758"
     inkscape:cy="224.0806"
     inkscape:window-width="1920"
     inkscape:window-height="991"
     inkscape:window-x="-9"
     inkscape:window-y="-9"
     inkscape:window-maximized="1"
     inkscape:current-layer="svg1" />
  <!--!Font Awesome Free 7.1.0 by @fontawesome - https://fontawesome.com License - https://fontawesome.com/license/free Copyright 2025 Fonticons, Inc.-->
  <path
     d="M 380.9,65.1 C 339,23.1 283.2,0 223.9,0 101.5,0 1.9,99.6 1.9,222 c 0,39.1 10.2,77.3 29.6,111 L 0,448 117.7,417.1 c 32.4,17.7 68.9,27 106.1,27 h 0.1 c 122.3,0 224.1,-99.6 224.1,-222 0,-59.3 -25.2,-115 -67.1,-157 z m -157,341.6 c -33.2,0 -65.7,-8.9 -94,-25.7 l -6.7,-4 -69.8,18.3 18.6,-68.1 -4.4,-7 C 49.1,290.8 39.4,256.9 39.4,222 39.4,120.3 122.2,37.5 224,37.5 c 49.3,0 95.6,19.2 130.4,54.1 34.8,34.9 56.2,81.2 56.1,130.5 0,101.8 -84.9,184.6 -186.6,184.6 z M 325.1,268.5 c -5.5,-2.8 -32.8,-16.2 -37.9,-18 -5.1,-1.9 -8.8,-2.8 -12.5,2.8 -3.7,5.6 -14.3,18 -17.6,21.8 -3.2,3.7 -6.5,4.2 -12,1.4 -32.6,-16.3 -54,-29.1 -75.5,-66 -5.7,-9.8 5.7,-9.1 16.3,-30.3 1.8,-3.7 0.9,-6.9 -0.5,-9.7 -1.4,-2.8 -12.5,-30.1 -17.1,-41.2 -4.5,-10.8 -9.1,-9.3 -12.5,-9.5 -3.2,-0.2 -6.9,-0.2 -10.6,-0.2 -3.7,0 -9.7,1.4 -14.8,6.9 -5.1,5.6 -19.4,19 -19.4,46.3 0,27.3 19.9,53.7 22.6,57.4 2.8,3.7 39.1,59.7 94.8,83.8 35.2,15.2 49,16.5 66.6,13.9 10.7,-1.6 32.8,-13.4 37.4,-26.4 4.6,-13 4.6,-24.1 3.2,-26.4 -1.3,-2.5 -5,-3.9 -10.5,-6.6 z"
     id="path1"
     style="fill:#f4f900;fill-opacity:1" />
</svg>
